<svg xmlns="http://www.w3.org/2000/svg" version="1.1" xmlns:xlink="http://www.w3.org/1999/xlink" xmlns:svgjs="http://svgjs.dev/svgjs" width="2000" height="1999" viewBox="0 0 2000 1999"><g transform="matrix(1,0,0,1,-0.431486880466764,-0.4312711370263287)"><svg viewBox="0 0 343 343" data-background-color="#011e59" preserveAspectRatio="xMidYMid meet" height="1999" width="2000" xmlns="http://www.w3.org/2000/svg" xmlns:xlink="http://www.w3.org/1999/xlink"><g id="tight-bounds" transform="matrix(1,0,0,1,0.0740000000000407,0.07400000000001228)"><svg viewBox="0 0 342.85155851775386 342.85155851775386" height="342.85155851775386" width="342.85155851775386"><g><svg></svg></g><g><svg viewBox="0 0 342.85155851775386 342.85155851775386" height="342.85155851775386" width="342.85155851775386"><g><path d="M0 171.426c0-94.676 76.75-171.426 171.426-171.426 94.676 0 171.426 76.75 171.426 171.426 0 94.676-76.75 171.426-171.426 171.426-94.676 0-171.426-76.75-171.426-171.426zM171.426 335.853c90.811 0 164.428-73.617 164.427-164.427 0-90.811-73.617-164.428-164.427-164.428-90.811 0-164.428 73.617-164.428 164.428 0 90.811 73.617 164.428 164.428 164.427z" data-fill-palette-color="tertiary" fill="#f7f7ff" stroke="transparent"></path><ellipse rx="164.56874808852186" ry="164.56874808852186" cx="171.42577925887693" cy="171.42577925887693" fill="#f7f7ff" stroke="transparent" stroke-width="0" fill-opacity="1" data-fill-palette-color="tertiary"></ellipse></g><g transform="matrix(1,0,0,1,64.84655864529837,132.62538611531025)"><svg viewBox="0 0 213.1584412271571 77.60078628713335" height="77.60078628713335" width="213.1584412271571"><g><svg viewBox="0 0 213.1584412271571 77.60078628713335" height="77.60078628713335" width="213.1584412271571"><g><svg viewBox="0 0 213.1584412271571 77.60078628713335" height="77.60078628713335" width="213.1584412271571"><g><svg viewBox="0 0 213.1584412271571 77.60078628713335" height="77.60078628713335" width="213.1584412271571"><g id="textblocktransform"><svg viewBox="0 0 213.1584412271571 77.60078628713335" height="77.60078628713335" width="213.1584412271571" id="textblock"><g><svg viewBox="0 0 213.1584412271571 77.60078628713335" height="77.60078628713335" width="213.1584412271571"><g transform="matrix(1,0,0,1,0,0)"><svg width="213.1584412271571" viewBox="1.56 -38.87 106.75999999999999 38.87" height="77.60078628713335" data-palette-color="#011e59"><path d="M21.17 0L1.56 0 1.56-8.42 5.47-8.42 5.47-30.44 1.56-30.44 1.56-38.87 20.83-38.87 20.83-30.44 17.87-30.44 17.87-21.31 27.44-30.44 24.49-30.44 24.49-38.87 40.55-38.87 40.55-30.44 37.26-30.44 27.59-21.53 28.52-21.53Q32.96-21.53 35.13-19.37 37.3-17.21 37.4-13.04L37.4-13.04 37.45-11.01Q37.5-9.72 38.02-9.07 38.55-8.42 39.82-8.42L39.82-8.42 42.41-8.42 42.41 0 33.91 0Q29.25 0 27.01-2.16 24.78-4.32 24.73-8.5L24.73-8.5 24.68-11.74Q24.61-15.65 21.07-15.65L21.07-15.65 17.87-15.65 17.87-8.42 21.17-8.42 21.17 0ZM59.2 0L43.11 0 43.11-8.42 46.65-8.42 53.95-30.44 48.7-30.44 48.7-38.87 72.82-38.87 81.96-8.42 85.5-8.42 85.5 0 63.6 0 63.6-8.42 67.62-8.42 66.5-12.7 56.44-12.7 55.17-8.42 59.2-8.42 59.2 0ZM61.79-30.66L58.25-18.8 64.89-18.8 61.79-30.66ZM108.32 0L87.32 0 87.32-8.42 91.47-8.42 91.47-30.44 87.32-30.44 87.32-38.87 108.32-38.87 108.32-30.44 104.17-30.44 104.17-8.42 108.32-8.42 108.32 0Z" opacity="1" transform="matrix(1,0,0,1,0,0)" fill="#011e59" class="wordmark-text-0" data-fill-palette-color="quaternary" id="text-0"></path></svg></g></svg></g></svg></g></svg></g></svg></g></svg></g></svg></g></svg></g><defs></defs></svg><rect width="342.85155851775386" height="342.85155851775386" fill="none" stroke="none" visibility="hidden"></rect></g></svg></g></svg>